<?xml version="1.0" encoding="UTF-8"?>
<svg width="332px" height="246px" viewBox="0 0 332 246" version="1.1" xmlns="http://www.w3.org/2000/svg" xmlns:xlink="http://www.w3.org/1999/xlink">
    <title>citympath-logo-orange@2x</title>
    <g id="Logo" stroke="none" stroke-width="1" fill="none" fill-rule="evenodd">
        <g id="citympath-logo-orange" fill-rule="nonzero">
            <g id="Group">
                <path d="M24.6367188,233.029297 C27.5807292,233.029297 30.4251302,232.520182 33.1699219,231.501953 C35.9147135,230.483724 38.3938802,229.022786 40.6074219,227.119141 L40.6074219,227.119141 L35.5605469,218.818359 C34.1660156,220.323568 32.5169271,221.480143 30.6132812,222.288086 C28.7096354,223.096029 26.7174479,223.5 24.6367188,223.5 C22.5338542,223.5 20.5638021,223.101562 18.7265625,222.304688 C16.8893229,221.507812 15.2845052,220.423177 13.9121094,219.050781 C12.5397135,217.678385 11.4550781,216.079102 10.6582031,214.25293 C9.86132812,212.426758 9.46289062,210.473307 9.46289062,208.392578 C9.46289062,206.311849 9.86132812,204.347331 10.6582031,202.499023 C11.4550781,200.650716 12.5397135,199.045898 13.9121094,197.68457 C15.2845052,196.323242 16.8893229,195.244141 18.7265625,194.447266 C20.5638021,193.650391 22.5338542,193.251953 24.6367188,193.251953 C26.7174479,193.251953 28.7096354,193.655924 30.6132812,194.463867 C32.5169271,195.27181 34.1660156,196.428385 35.5605469,197.933594 L35.5605469,197.933594 L40.6074219,189.632812 C38.3938802,187.707031 35.9147135,186.24056 33.1699219,185.233398 C30.4251302,184.226237 27.5807292,183.722656 24.6367188,183.722656 C22.3789062,183.722656 20.2041016,184.015951 18.1123047,184.602539 C16.0205078,185.189128 14.0615234,186.019206 12.2353516,187.092773 C10.4091797,188.166341 8.74348958,189.455729 7.23828125,190.960938 C5.73307292,192.466146 4.4436849,194.131836 3.37011719,195.958008 C2.29654948,197.78418 1.46647135,199.748698 0.879882813,201.851562 C0.293294271,203.954427 0,206.134766 0,208.392578 C0,210.650391 0.293294271,212.825195 0.879882813,214.916992 C1.46647135,217.008789 2.29654948,218.967773 3.37011719,220.793945 C4.4436849,222.620117 5.73307292,224.285807 7.23828125,225.791016 C8.74348958,227.296224 10.4091797,228.585612 12.2353516,229.65918 C14.0615234,230.732747 16.0205078,231.562826 18.1123047,232.149414 C20.2041016,232.736003 22.3789062,233.029297 24.6367188,233.029297 Z M50.4862813,192.820312 C51.3274271,192.820312 52.1187683,192.659831 52.8603047,192.338867 C53.6018412,192.017904 54.2493021,191.586263 54.8026875,191.043945 C55.3560729,190.501628 55.7932474,189.865234 56.114211,189.134766 C56.4351745,188.404297 56.5956563,187.61849 56.5956563,186.777344 C56.5956563,185.958333 56.4351745,185.17806 56.114211,184.436523 C55.7932474,183.694987 55.3560729,183.05306 54.8026875,182.510742 C54.2493021,181.968424 53.6018412,181.536784 52.8603047,181.21582 C52.1187683,180.894857 51.3274271,180.734375 50.4862813,180.734375 C49.6451354,180.734375 48.8537943,180.894857 48.1122578,181.21582 C47.3707214,181.536784 46.7287943,181.968424 46.1864766,182.510742 C45.6441589,183.05306 45.2125183,183.694987 44.8915547,184.436523 C44.5705912,185.17806 44.4101094,185.958333 44.4101094,186.777344 C44.4101094,187.61849 44.5705912,188.404297 44.8915547,189.134766 C45.2125183,189.865234 45.6441589,190.501628 46.1864766,191.043945 C46.7287943,191.586263 47.3707214,192.017904 48.1122578,192.338867 C48.8537943,192.659831 49.6451354,192.820312 50.4862813,192.820312 Z M55.0351094,232 L55.0351094,196.439453 L45.90425,196.439453 L45.90425,232 L55.0351094,232 Z M87.3924844,232 L87.3924844,222.96875 L80.5194376,222.96875 C79.5676146,222.96875 78.6711303,222.786133 77.8299844,222.420898 C76.9888386,222.055664 76.2583698,221.563151 75.6385782,220.943359 C75.0187865,220.323568 74.5318073,219.598633 74.1776407,218.768555 C73.823474,217.938477 73.6463907,217.047526 73.6463907,216.095703 L73.6463907,216.095703 L73.6463907,205.537109 L87.3924844,205.537109 L87.3924844,196.505859 L73.6463907,196.505859 L73.6463907,182.294922 L64.6151407,182.294922 L64.6151407,196.505859 L60.1991251,196.505859 L60.1991251,205.537109 L64.6151407,205.537109 L64.6151407,216.095703 C64.6151407,218.287109 65.0301797,220.345703 65.8602579,222.271484 C66.690336,224.197266 67.8303099,225.885091 69.2801797,227.334961 C70.7300495,228.784831 72.4178751,229.924805 74.3436563,230.754883 C76.2694376,231.584961 78.3280313,232 80.5194376,232 L80.5194376,232 L87.3924844,232 Z M106.435406,245.613281 C108.936708,245.613281 111.283063,245.13737 113.474469,244.185547 C115.665875,243.233724 117.586122,241.938802 119.235211,240.300781 C120.8843,238.66276 122.184755,236.748047 123.136578,234.556641 C124.088401,232.365234 124.57538,230.01888 124.597516,227.517578 L124.597516,227.517578 L124.597516,196.439453 L115.466656,196.439453 L115.466656,216.095703 C115.466656,217.047526 115.289573,217.97168 114.935406,218.868164 C114.58124,219.764648 114.09426,220.567057 113.474469,221.275391 C112.854677,221.983724 112.129742,222.553711 111.299664,222.985352 C110.469586,223.416992 109.589703,223.632812 108.660016,223.632812 C107.708193,223.632812 106.817242,223.477865 105.987164,223.167969 C105.157086,222.858073 104.432151,222.387695 103.812359,221.756836 C103.192568,221.125977 102.700055,220.340169 102.33482,219.399414 C101.969586,218.458659 101.786969,217.357422 101.786969,216.095703 L101.786969,216.095703 L101.786969,196.439453 L92.7557188,196.439453 L92.7557188,216.095703 C92.7557188,218.641276 93.1707579,220.937826 94.000836,222.985352 C94.8309141,225.032878 95.9708881,226.770508 97.4207579,228.198242 C98.8706277,229.625977 100.558453,230.727214 102.484234,231.501953 C104.410016,232.276693 106.468609,232.664062 108.660016,232.664062 C109.70038,232.664062 110.735211,232.453776 111.764508,232.033203 C112.793805,231.61263 113.8065,231.192057 114.802594,230.771484 C114.470563,231.590495 114.038922,232.348633 113.507672,233.045898 C112.976422,233.743164 112.362164,234.346354 111.664899,234.855469 C110.967633,235.364583 110.209495,235.763021 109.390484,236.050781 C108.571474,236.338542 107.71926,236.482422 106.833844,236.482422 L106.833844,236.482422 L101.786969,236.416016 L101.786969,245.546875 L106.435406,245.613281 Z M141.316219,232 L141.316219,209.421875 C141.316219,208.802083 141.43243,208.215495 141.664852,207.662109 C141.897274,207.108724 142.218237,206.621745 142.627742,206.201172 C143.037247,205.780599 143.513159,205.454102 144.055477,205.22168 C144.597794,204.989258 145.178849,204.873047 145.798641,204.873047 C146.418432,204.873047 147.005021,204.989258 147.558406,205.22168 C148.111792,205.454102 148.598771,205.780599 149.019344,206.201172 C149.439917,206.621745 149.766414,207.108724 149.998836,207.662109 C150.231258,208.215495 150.347469,208.802083 150.347469,209.421875 L150.347469,209.421875 L150.347469,232 L159.411922,232 L159.411922,209.421875 C159.411922,208.802083 159.528133,208.215495 159.760555,207.662109 C159.992977,207.108724 160.31394,206.621745 160.723445,206.201172 C161.132951,205.780599 161.608862,205.454102 162.15118,205.22168 C162.693497,204.989258 163.274552,204.873047 163.894344,204.873047 C164.514136,204.873047 165.100724,204.989258 165.654109,205.22168 C166.207495,205.454102 166.694474,205.780599 167.115047,206.201172 C167.53562,206.621745 167.862117,207.108724 168.094539,207.662109 C168.326961,208.215495 168.443172,208.802083 168.443172,209.421875 L168.443172,209.421875 L168.443172,232 L177.474422,232 L177.474422,209.421875 C177.474422,207.540365 177.120255,205.769531 176.411922,204.109375 C175.703589,202.449219 174.735164,201.004883 173.506649,199.776367 C172.278133,198.547852 170.839331,197.579427 169.190242,196.871094 C167.541154,196.16276 165.775854,195.808594 163.894344,195.808594 C163.075333,195.808594 162.245255,195.880534 161.404109,196.024414 C160.562964,196.168294 159.749487,196.40625 158.96368,196.738281 C158.177872,197.070312 157.430802,197.501953 156.722469,198.033203 C156.014136,198.564453 155.383276,199.20638 154.829891,199.958984 C153.634578,198.431641 152.245581,197.358073 150.662899,196.738281 C149.080216,196.11849 147.458797,195.808594 145.798641,195.808594 C144.16062,195.808594 142.583471,196.101888 141.067195,196.688477 C139.550919,197.275065 138.161922,198.099609 136.900203,199.162109 L136.900203,199.162109 L134.443172,196.439453 L132.251766,196.439453 L132.251766,232 L141.316219,232 Z M193.960703,245.546875 L193.960703,229.609375 C194.646901,230.007812 195.360768,230.395182 196.102305,230.771484 C196.843841,231.147786 197.596445,231.485352 198.360117,231.78418 C199.123789,232.083008 199.898529,232.320964 200.684336,232.498047 C201.470143,232.67513 202.261485,232.763672 203.05836,232.763672 C205.559662,232.763672 207.91155,232.332031 210.114024,231.46875 C212.316498,230.605469 214.242279,229.360352 215.891367,227.733398 C217.540456,226.106445 218.840912,224.125326 219.792735,221.790039 C220.744557,219.454753 221.220469,216.826172 221.220469,213.904297 C221.220469,211.093099 220.744557,208.530924 219.792735,206.217773 C218.840912,203.904622 217.540456,201.929036 215.891367,200.291016 C214.242279,198.652995 212.316498,197.385742 210.114024,196.489258 C207.91155,195.592773 205.559662,195.144531 203.05836,195.144531 C201.907318,195.144531 200.767344,195.288411 199.638438,195.576172 C198.509531,195.863932 197.419362,196.256836 196.36793,196.754883 C195.316498,197.25293 194.303802,197.845052 193.329844,198.53125 C192.355886,199.217448 191.459401,199.947917 190.640391,200.722656 L190.640391,200.722656 L187.02125,196.439453 L184.829844,196.439453 L184.829844,245.546875 L193.960703,245.546875 Z M203.05836,223.566406 C201.818776,223.566406 200.651133,223.333984 199.55543,222.869141 C198.459727,222.404297 197.50237,221.751302 196.68336,220.910156 C195.864349,220.06901 195.216888,219.050781 194.740977,217.855469 C194.265065,216.660156 194.02711,215.343099 194.02711,213.904297 C194.02711,212.399089 194.265065,211.048828 194.740977,209.853516 C195.216888,208.658203 195.864349,207.645508 196.68336,206.81543 C197.50237,205.985352 198.459727,205.348958 199.55543,204.90625 C200.651133,204.463542 201.818776,204.242188 203.05836,204.242188 C204.297943,204.242188 205.47112,204.463542 206.577891,204.90625 C207.684662,205.348958 208.647552,205.985352 209.466563,206.81543 C210.285573,207.645508 210.933034,208.658203 211.408945,209.853516 C211.884857,211.048828 212.122813,212.399089 212.122813,213.904297 C212.122813,215.343099 211.884857,216.660156 211.408945,217.855469 C210.933034,219.050781 210.285573,220.06901 209.466563,220.910156 C208.647552,221.751302 207.684662,222.404297 206.577891,222.869141 C205.47112,223.333984 204.297943,223.566406 203.05836,223.566406 Z M243.251672,232.664062 C244.402714,232.664062 245.537154,232.520182 246.654992,232.232422 C247.772831,231.944661 248.863,231.551758 249.9255,231.053711 C250.988,230.555664 252.000695,229.969076 252.963586,229.293945 C253.926477,228.618815 254.839563,227.89388 255.702844,227.119141 L255.702844,227.119141 L259.222375,232 L261.413781,232 L261.413781,196.505859 L259.222375,196.505859 L255.702844,200.722656 C254.861698,199.925781 253.95968,199.184245 252.996789,198.498047 C252.033899,197.811849 251.021203,197.214193 249.958703,196.705078 C248.896203,196.195964 247.8005,195.797526 246.671594,195.509766 C245.542688,195.222005 244.402714,195.078125 243.251672,195.078125 C240.75037,195.078125 238.398482,195.537435 236.196008,196.456055 C233.993534,197.374674 232.067753,198.664062 230.418664,200.324219 C228.769576,201.984375 227.46912,203.971029 226.517297,206.28418 C225.565474,208.597331 225.089563,211.13737 225.089563,213.904297 C225.089563,216.870443 225.565474,219.515625 226.517297,221.839844 C227.46912,224.164062 228.769576,226.128581 230.418664,227.733398 C232.067753,229.338216 233.993534,230.561198 236.196008,231.402344 C238.398482,232.24349 240.75037,232.664062 243.251672,232.664062 Z M243.251672,223.566406 C242.012089,223.566406 240.844445,223.35612 239.748742,222.935547 C238.653039,222.514974 237.701216,221.895182 236.893274,221.076172 C236.085331,220.257161 235.448938,219.244466 234.984094,218.038086 C234.51925,216.831706 234.286828,215.453776 234.286828,213.904297 C234.286828,212.354818 234.51925,210.976888 234.984094,209.770508 C235.448938,208.564128 236.085331,207.551432 236.893274,206.732422 C237.701216,205.913411 238.653039,205.29362 239.748742,204.873047 C240.844445,204.452474 242.012089,204.242188 243.251672,204.242188 C244.491255,204.242188 245.658899,204.513346 246.754602,205.055664 C247.850305,205.597982 248.807662,206.317383 249.626672,207.213867 C250.445682,208.110352 251.093143,209.139648 251.569055,210.301758 C252.044966,211.463867 252.282922,212.664714 252.282922,213.904297 C252.282922,215.14388 252.044966,216.344727 251.569055,217.506836 C251.093143,218.668945 250.445682,219.698242 249.626672,220.594727 C248.807662,221.491211 247.850305,222.210612 246.754602,222.75293 C245.658899,223.295247 244.491255,223.566406 243.251672,223.566406 Z M293.771156,232 L293.771156,222.96875 L286.89811,222.96875 C285.946287,222.96875 285.049802,222.786133 284.208656,222.420898 C283.367511,222.055664 282.637042,221.563151 282.01725,220.943359 C281.397459,220.323568 280.910479,219.598633 280.556313,218.768555 C280.202146,217.938477 280.025063,217.047526 280.025063,216.095703 L280.025063,216.095703 L280.025063,205.537109 L293.771156,205.537109 L293.771156,196.505859 L280.025063,196.505859 L280.025063,182.294922 L270.993813,182.294922 L270.993813,196.505859 L266.577797,196.505859 L266.577797,205.537109 L270.993813,205.537109 L270.993813,216.095703 C270.993813,218.287109 271.408852,220.345703 272.23893,222.271484 C273.069008,224.197266 274.208982,225.885091 275.658852,227.334961 C277.108722,228.784831 278.796547,229.924805 280.722328,230.754883 C282.64811,231.584961 284.706703,232 286.89811,232 L286.89811,232 L293.771156,232 Z M308.663688,232 L308.663688,211.679688 C308.663688,210.75 308.840771,209.870117 309.194938,209.040039 C309.549104,208.209961 310.036084,207.485026 310.655875,206.865234 C311.275667,206.245443 312.006136,205.758464 312.847281,205.404297 C313.688427,205.05013 314.584912,204.873047 315.536735,204.873047 C316.466422,204.873047 317.340771,205.05013 318.159781,205.404297 C318.978792,205.758464 319.698193,206.245443 320.317985,206.865234 C320.937776,207.485026 321.424755,208.209961 321.778922,209.040039 C322.133089,209.870117 322.310172,210.75 322.310172,211.679688 L322.310172,211.679688 L322.243766,211.679688 L322.243766,232 L331.374625,232 L331.374625,211.679688 C331.374625,209.488281 330.959586,207.424154 330.129508,205.487305 C329.29943,203.550456 328.170524,201.857096 326.742789,200.407227 C325.315055,198.957357 323.638297,197.817383 321.712516,196.987305 C319.786735,196.157227 317.728141,195.742188 315.536735,195.742188 C314.341422,195.742188 313.168245,195.913737 312.017203,196.256836 C310.866162,196.599935 309.748323,197.18099 308.663688,198 L308.663688,198 L308.663688,182.294922 L299.599235,182.294922 L299.599235,232 L308.663688,232 Z" id="Citympath" fill="#39342E"></path>
                <path d="M244.173828,0 L244.173828,144.47 L274.173828,144.47 L274.173828,152.472136 L236.173828,152.472136 L236.173828,12.942136 L184.173828,38.942136 L184.173828,50.472136 L202.173828,50.472136 L202.173828,106.472136 L176.173828,106.472136 L176.173828,58.472136 L152.173828,58.472136 L152.173828,68.472136 L138.173828,68.472136 L138.173828,152.472136 L67.1738281,152.472136 L67.1738281,144.472136 L88.1738281,144.472 L88.1738215,125.143103 C72.7994538,122.588 61.4227041,105.474437 61.1778577,85.1417597 L61.1738281,84.472136 C61.1738281,62.1136781 74.6371641,43.472136 92.1738281,43.472136 C109.710492,43.472136 123.173828,62.1136781 123.173828,84.472136 C123.173828,105.09715 111.717181,122.55925 96.1748337,125.142937 L96.1738281,144.472 L130.173828,144.472136 L130.173828,60.472136 L144.173828,60.472136 L144.173828,50.472136 L176.173828,50.472136 L176.173828,34 L244.173828,0 Z M210.173828,130.472136 L210.173828,138.472136 L200.173828,138.472136 L200.173828,130.472136 L210.173828,130.472136 Z M210.173828,114.472136 L210.173828,122.472136 L200.173828,122.472136 L200.173828,114.472136 L210.173828,114.472136 Z M156.173828,110.472136 L156.173828,118.472136 L146.173828,118.472136 L146.173828,110.472136 L156.173828,110.472136 Z M92.1738281,53.472136 C80.9916851,53.472136 71.1738281,67.0660918 71.1738281,84.472136 C71.1738281,99.7639693 78.7514975,112.113537 88.174672,114.887988 L88.1738281,74.472136 L96.1738281,74.472136 L96.1738281,88.814 L103.345401,81.6437088 L109.002255,87.3005631 L96.1738281,100.128 L96.1739867,114.887693 C105.489438,112.144249 113.001088,100.043329 113.170891,84.9931639 L113.173828,84.472136 C113.173828,67.0660918 103.355971,53.472136 92.1738281,53.472136 Z M156.173828,94.472136 L156.173828,102.472136 L146.173828,102.472136 L146.173828,94.472136 L156.173828,94.472136 Z M194.173828,58.472136 L184.173828,58.472136 L184.173828,98.472136 L194.173828,98.472136 L194.173828,58.472136 Z M156.173828,78.472136 L156.173828,86.472136 L146.173828,86.472136 L146.173828,78.472136 L156.173828,78.472136 Z M228.173828,64.472136 L228.173828,72.472136 L218.173828,72.472136 L218.173828,64.472136 L228.173828,64.472136 Z M228.173828,48.472136 L228.173828,56.472136 L218.173828,56.472136 L218.173828,48.472136 L228.173828,48.472136 Z M228.173828,32.472136 L228.173828,40.472136 L218.173828,40.472136 L218.173828,32.472136 L228.173828,32.472136 Z" id="Combined-Shape" fill="#FF9500"></path>
            </g>
        </g>
    </g>
</svg>